<?xml version="1.0" encoding="UTF-8"?>
<svg width="1200pt" height="1200pt" version="1.1" viewBox="0 0 1200 1200" xmlns="http://www.w3.org/2000/svg">
 <path d="m828 891h-510c-56.398 0-102-45.602-102-102v-264c0-56.398 45.602-102 102-102h289.2c25.801 0 49.801 10.199 67.801 28.199l64.801 64.801c13.801 13.801 31.801 21 51 21h37.199c56.398 0 102 45.602 102 102v150c0 56.398-45.602 102-102 102zm-510-444c-43.199 0-78 34.801-78 78v264c0 43.199 34.801 78 78 78h510c43.199 0 78-34.801 78-78v-150c0-43.199-34.801-78-78-78h-37.199c-25.801 0-49.801-10.199-67.801-28.199l-64.801-64.801c-13.801-13.801-31.801-21-51-21z" fill="#2e4b3f"/>
 <path d="m972 705c-6.6016 0-12-5.3984-12-12v-186c0-33-27-60-60-60h-55.199c-25.801 0-49.801-10.199-67.801-28.199l-64.801-64.801c-13.801-13.801-31.801-21-51-21h-307.2c-33 0-60 27-60 60 0 6.6016-5.3984 12-12 12s-12-5.3984-12-12c0-46.199 37.801-84 84-84h307.2c25.801 0 49.801 10.199 67.801 28.199l64.801 64.801c13.801 13.801 31.801 21 51 21h55.199c46.199 0 84 37.801 84 84v186c0 6.6016-5.3984 12-12 12z" fill="#2e4b3f"/>
 <path d="m570 489h-204c-39.602 0-72 32.398-72 72v204c0 39.602 32.398 72 72 72h204c39.602 0 72-32.398 72-72v-204c0-39.602-32.398-72-72-72zm-27 202.2-94.801 61.801c-5.3984 3.6016-12 5.3984-18.602 5.3984-5.3984 0-10.801-1.1992-16.199-4.1992-10.801-6-17.398-17.398-17.398-29.398v-124.2c0-12.602 6.6016-23.398 17.398-29.398 10.801-6 24-5.3984 34.199 1.1992l94.801 61.801c9 6 15 16.801 15 28.199 0 11.398-5.3984 22.797-14.398 28.797z" fill="#2e4b3f"/>
 <path d="m534 663c0 2.3984-1.1992 6-4.1992 7.8008l-94.801 61.801c-4.1992 3-8.3984 1.1992-9.6016 0.60156-1.8008-0.60156-4.8008-3-4.8008-8.3984v-124.2c0-5.3984 3.6016-7.8008 4.8008-8.3984 0.60156-0.60156 2.3984-1.1992 4.8008-1.1992 1.8008 0 3.6016 0.60156 5.3984 1.8008l94.801 61.801c2.4023 2.3906 3.6016 5.9922 3.6016 8.3906z" fill="#2e4b3f"/>
</svg>
